<svg width="1200" height="760" viewBox="0 0 1200 760" fill="none" xmlns="http://www.w3.org/2000/svg">
  <defs>
    <linearGradient id="bg" x1="0" y1="0" x2="1200" y2="760" gradientUnits="userSpaceOnUse">
      <stop stop-color="#ffffff"/>
      <stop offset="0.48" stop-color="#f3f8ff"/>
      <stop offset="1" stop-color="#eaf3ff"/>
    </linearGradient>
    <linearGradient id="blue" x1="0" y1="0" x2="1" y2="1">
      <stop stop-color="#0052ff"/>
      <stop offset="1" stop-color="#00c2ff"/>
    </linearGradient>
    <filter id="shadow" x="-20%" y="-20%" width="140%" height="140%">
      <feDropShadow dx="0" dy="18" stdDeviation="22" flood-color="#0052ff" flood-opacity="0.18"/>
    </filter>
    <marker id="arrow" markerWidth="12" markerHeight="12" refX="10" refY="6" orient="auto" markerUnits="strokeWidth">
      <path d="M2,2 L10,6 L2,10 Z" fill="#0052ff"/>
    </marker>
    <style>
      .title{font:800 42px 'Inter',Arial,sans-serif;fill:#07111f;letter-spacing:-1.6px}
      .sub{font:500 16px 'Inter',Arial,sans-serif;fill:#48627f}
      .box-title{font:800 18px 'Inter',Arial,sans-serif;fill:#07111f}
      .box-sub{font:600 12px 'Inter',Arial,sans-serif;fill:#607089}
      .tag{font:800 10px 'Inter',Arial,sans-serif;fill:#0052ff;letter-spacing:1px}
      .small{font:700 11px 'Inter',Arial,sans-serif;fill:#38516f}
      .arrow{stroke:#0052ff;stroke-width:3;marker-end:url(#arrow);stroke-linecap:round}
      .dash{stroke:#00a7e8;stroke-width:2.5;stroke-dasharray:7 7;marker-end:url(#arrow);stroke-linecap:round}
    </style>
  </defs>

  <rect width="1200" height="760" rx="38" fill="url(#bg)"/>
  <circle cx="1050" cy="105" r="230" fill="#0052ff" opacity="0.09"/>
  <circle cx="90" cy="680" r="220" fill="#00c2ff" opacity="0.10"/>

  <text x="70" y="78" class="title">Dyanto AlphaRadar Architecture</text>
  <text x="72" y="110" class="sub">Autonomous DEX intelligence pipeline for token discovery, risk scoring, GMGN-style panels, API, CLI, and dashboard reports.</text>

  <rect x="55" y="158" width="225" height="105" rx="24" fill="#fff" stroke="#cfe0ff" filter="url(#shadow)"/>
  <text x="82" y="193" class="tag">INPUT</text>
  <text x="82" y="221" class="box-title">Token / Query</text>
  <text x="82" y="245" class="box-sub">CA, pair, symbol, keyword</text>

  <rect x="305" y="135" width="300" height="155" rx="28" fill="#fff" stroke="#cfe0ff" filter="url(#shadow)"/>
  <text x="335" y="172" class="tag">DATA ADAPTERS</text>
  <text x="335" y="202" class="box-title">Dexscreener First</text>
  <text x="335" y="226" class="box-sub">token/search endpoints</text>
  <text x="335" y="255" class="box-title">GeckoTerminal</text>
  <text x="335" y="279" class="box-sub">pool/price enrichment</text>

  <rect x="640" y="135" width="280" height="155" rx="28" fill="#fff" stroke="#cfe0ff" filter="url(#shadow)"/>
  <text x="670" y="172" class="tag">NORMALIZE</text>
  <text x="670" y="202" class="box-title">Primary Pair Picker</text>
  <text x="670" y="226" class="box-sub">chain, DEX, liquidity, volume</text>
  <text x="670" y="255" class="box-title">Market Snapshot</text>
  <text x="670" y="279" class="box-sub">m5 / h1 / h6 / h24 metrics</text>

  <rect x="955" y="135" width="220" height="155" rx="28" fill="url(#blue)" filter="url(#shadow)"/>
  <text x="980" y="172" style="font:800 10px Inter,Arial;fill:#fff;letter-spacing:1px">SCORING</text>
  <text x="980" y="202" style="font:800 18px Inter,Arial;fill:#fff">Opportunity</text>
  <text x="980" y="226" style="font:600 11px Inter,Arial;fill:#dcecff">liquidity, volume, breadth</text>
  <text x="980" y="255" style="font:800 18px Inter,Arial;fill:#fff">Risk</text>
  <text x="980" y="279" style="font:600 11px Inter,Arial;fill:#dcecff">churn, sell pressure, FDV</text>

  <path d="M280 211 H305" class="arrow"/>
  <path d="M605 211 H640" class="arrow"/>
  <path d="M920 211 H955" class="arrow"/>

  <rect x="90" y="380" width="295" height="185" rx="30" fill="#fff" stroke="#cfe0ff" filter="url(#shadow)"/>
  <text x="123" y="418" class="tag">GMGN-STYLE DETAILS</text>
  <text x="123" y="451" class="box-title">Security Panel</text>
  <text x="123" y="475" class="box-sub">liquidity, sell pressure, churn</text>
  <text x="123" y="506" class="box-title">Pool Profile</text>
  <text x="123" y="530" class="box-sub">age, active pools, vol/liq</text>

  <rect x="455" y="380" width="295" height="185" rx="30" fill="#fff" stroke="#cfe0ff" filter="url(#shadow)"/>
  <text x="488" y="418" class="tag">WALLET INTEL</text>
  <text x="488" y="451" class="box-title">Smart Money Signal</text>
  <text x="488" y="475" class="box-sub">public-data inferred now</text>
  <text x="488" y="506" class="box-title">Holder Snapshot</text>
  <text x="488" y="530" class="box-sub">RPC/indexer roadmap</text>

  <rect x="820" y="380" width="295" height="185" rx="30" fill="#fff" stroke="#cfe0ff" filter="url(#shadow)"/>
  <text x="853" y="418" class="tag">OUTPUTS</text>
  <text x="853" y="451" class="box-title">FastAPI Dashboard</text>
  <text x="853" y="475" class="box-sub">blue-white premium UI</text>
  <text x="853" y="506" class="box-title">CLI + Markdown</text>
  <text x="853" y="530" class="box-sub">analyst reports + JSON API</text>

  <path d="M1052 290 C1052 340 995 358 968 380" class="dash"/>
  <path d="M1052 290 C1010 350 654 345 603 380" class="dash"/>
  <path d="M1052 290 C820 345 340 345 238 380" class="dash"/>
  <path d="M385 473 H455" class="arrow"/>
  <path d="M750 473 H820" class="arrow"/>

  <rect x="70" y="625" width="1060" height="74" rx="22" fill="#ffffff" stroke="#d6e6ff"/>
  <circle cx="105" cy="662" r="9" fill="#10b981"/>
  <text x="126" y="653" class="small">Dry-run only by default • no live trading execution • token due diligence, alpha discovery, creator-program demos</text>
  <text x="126" y="675" class="small">Current focus: Solana • Coming soon: Base, Ethereum, TON</text>
</svg>
