<svg width="1200" height="720" viewBox="0 0 1200 720" fill="none" xmlns="http://www.w3.org/2000/svg">
  <defs>
    <linearGradient id="bg" x1="0" y1="0" x2="1200" y2="720" gradientUnits="userSpaceOnUse">
      <stop stop-color="#ffffff"/>
      <stop offset="0.48" stop-color="#f3f8ff"/>
      <stop offset="1" stop-color="#eaf3ff"/>
    </linearGradient>
    <linearGradient id="blue" x1="0" y1="0" x2="1" y2="1">
      <stop stop-color="#0052ff"/>
      <stop offset="1" stop-color="#00c2ff"/>
    </linearGradient>
    <filter id="shadow" x="-20%" y="-20%" width="140%" height="140%">
      <feDropShadow dx="0" dy="18" stdDeviation="22" flood-color="#0052ff" flood-opacity="0.18"/>
    </filter>
    <marker id="arrow" markerWidth="12" markerHeight="12" refX="10" refY="6" orient="auto" markerUnits="strokeWidth">
      <path d="M2,2 L10,6 L2,10 Z" fill="#0052ff"/>
    </marker>
    <style>
      .title{font:800 42px 'Inter',Arial,sans-serif;fill:#07111f;letter-spacing:-1.6px}
      .sub{font:500 17px 'Inter',Arial,sans-serif;fill:#48627f}
      .box-title{font:800 19px 'Inter',Arial,sans-serif;fill:#07111f}
      .box-sub{font:600 13px 'Inter',Arial,sans-serif;fill:#607089}
      .tag{font:800 11px 'Inter',Arial,sans-serif;fill:#0052ff;letter-spacing:1.4px}
      .small{font:700 12px 'Inter',Arial,sans-serif;fill:#38516f}
      .arrow{stroke:#0052ff;stroke-width:3;marker-end:url(#arrow);stroke-linecap:round}
      .dash{stroke:#00a7e8;stroke-width:2.5;stroke-dasharray:7 7;marker-end:url(#arrow);stroke-linecap:round}
    </style>
  </defs>

  <rect width="1200" height="720" rx="38" fill="url(#bg)"/>
  <circle cx="1050" cy="105" r="230" fill="#0052ff" opacity="0.09"/>
  <circle cx="90" cy="640" r="220" fill="#00c2ff" opacity="0.10"/>

  <text x="70" y="78" class="title">Dyanto AlphaRadar Architecture</text>
  <text x="72" y="110" class="sub">Autonomous DEX intelligence pipeline for token discovery, risk scoring, GMGN-style detail panels, API, CLI, and dashboard reports.</text>

  <rect x="70" y="158" width="190" height="95" rx="24" fill="#fff" stroke="#cfe0ff" filter="url(#shadow)"/>
  <text x="95" y="192" class="tag">INPUT</text>
  <text x="95" y="219" class="box-title">Token / Query</text>
  <text x="95" y="241" class="box-sub">CA, pair, symbol, keyword</text>

  <rect x="330" y="135" width="230" height="145" rx="28" fill="#fff" stroke="#cfe0ff" filter="url(#shadow)"/>
  <text x="360" y="172" class="tag">DATA ADAPTERS</text>
  <text x="360" y="202" class="box-title">Dexscreener First</text>
  <text x="360" y="226" class="box-sub">token/search endpoints</text>
  <text x="360" y="252" class="box-title">GeckoTerminal Ready</text>
  <text x="360" y="274" class="box-sub">pool/price enrichment scaffold</text>

  <rect x="640" y="135" width="235" height="145" rx="28" fill="#fff" stroke="#cfe0ff" filter="url(#shadow)"/>
  <text x="670" y="172" class="tag">NORMALIZE</text>
  <text x="670" y="202" class="box-title">Primary Pair Picker</text>
  <text x="670" y="226" class="box-sub">chain, DEX, liquidity, volume</text>
  <text x="670" y="252" class="box-title">Market Snapshot</text>
  <text x="670" y="274" class="box-sub">m5 / h1 / h6 / h24 metrics</text>

  <rect x="950" y="135" width="180" height="145" rx="28" fill="url(#blue)" filter="url(#shadow)"/>
  <text x="980" y="172" style="font:800 11px Inter,Arial;fill:#fff;letter-spacing:1.4px">SCORING</text>
  <text x="980" y="202" style="font:800 20px Inter,Arial;fill:#fff">Opportunity</text>
  <text x="980" y="226" style="font:600 13px Inter,Arial;fill:#dcecff">liquidity, volume, breadth</text>
  <text x="980" y="252" style="font:800 20px Inter,Arial;fill:#fff">Risk</text>
  <text x="980" y="274" style="font:600 13px Inter,Arial;fill:#dcecff">churn, sell pressure, FDV</text>

  <path d="M260 206 H330" class="arrow"/>
  <path d="M560 206 H640" class="arrow"/>
  <path d="M875 206 H950" class="arrow"/>

  <rect x="145" y="365" width="250" height="170" rx="30" fill="#fff" stroke="#cfe0ff" filter="url(#shadow)"/>
  <text x="178" y="402" class="tag">GMGN-STYLE DETAILS</text>
  <text x="178" y="434" class="box-title">Security Panel</text>
  <text x="178" y="457" class="box-sub">liquidity, sell pressure, churn</text>
  <text x="178" y="487" class="box-title">Pool Profile</text>
  <text x="178" y="510" class="box-sub">age, active pools, vol/liq</text>

  <rect x="475" y="365" width="250" height="170" rx="30" fill="#fff" stroke="#cfe0ff" filter="url(#shadow)"/>
  <text x="508" y="402" class="tag">WALLET INTEL</text>
  <text x="508" y="434" class="box-title">Smart Money Signal</text>
  <text x="508" y="457" class="box-sub">public-data inferred now</text>
  <text x="508" y="487" class="box-title">Holder Snapshot</text>
  <text x="508" y="510" class="box-sub">RPC/indexer roadmap</text>

  <rect x="805" y="365" width="250" height="170" rx="30" fill="#fff" stroke="#cfe0ff" filter="url(#shadow)"/>
  <text x="838" y="402" class="tag">OUTPUTS</text>
  <text x="838" y="434" class="box-title">FastAPI Dashboard</text>
  <text x="838" y="457" class="box-sub">blue-white premium UI</text>
  <text x="838" y="487" class="box-title">CLI + Markdown</text>
  <text x="838" y="510" class="box-sub">analyst reports + JSON API</text>

  <path d="M1040 280 C1040 325 982 344 930 365" class="dash"/>
  <path d="M1040 280 C1005 350 646 330 600 365" class="dash"/>
  <path d="M1040 280 C820 330 365 318 270 365" class="dash"/>
  <path d="M395 450 H475" class="arrow"/>
  <path d="M725 450 H805" class="arrow"/>

  <rect x="70" y="600" width="1060" height="62" rx="22" fill="#ffffff" stroke="#d6e6ff"/>
  <circle cx="105" cy="631" r="9" fill="#10b981"/>
  <text x="126" y="636" class="small">Dry-run only by default • no live trading execution • designed for token due diligence, alpha discovery, and creator-program demos</text>
</svg>
